<svg xmlns="http://www.w3.org/2000/svg" viewBox="0 0 64 64" fill="none">
  <!-- Background -->
  <rect width="64" height="64" rx="8" fill="#1a1a2e"/>
  <!-- Trophy cup body -->
  <path d="M22 14h20v2H22z" fill="#FFD700"/>
  <path d="M24 16c0 8 4 14 8 16c4-2 8-8 8-16H24z" fill="#FFD700"/>
  <!-- Trophy handles -->
  <path d="M24 18c-2 0-4 2-4 5s2 4 4 4" stroke="#FFD700" stroke-width="2" fill="none" stroke-linecap="round"/>
  <path d="M40 18c2 0 4 2 4 5s-2 4-4 4" stroke="#FFD700" stroke-width="2" fill="none" stroke-linecap="round"/>
  <!-- Trophy stem -->
  <rect x="30" y="32" width="4" height="6" fill="#FFD700"/>
  <rect x="26" y="38" width="12" height="2.5" fill="#FFD700"/>
  <rect x="24" y="40.5" width="16" height="2" fill="#FFD700"/>
  <!-- Soccer ball -->
  <circle cx="32" cy="52" r="6" fill="white" stroke="#333" stroke-width="0.5"/>
  <path d="M32 46l2 2-1.5 2.5H31.5L30 48z" fill="#222"/>
  <path d="M38 50l-2 .5-1.5-2 1-2 2.5.5z" fill="#222"/>
  <path d="M36.5 55l-1.5-2 .5-2 2.5.5 1 2z" fill="#222"/>
  <path d="M27.5 55l1-2 2.5-.5.5 2-1.5 2z" fill="#222"/>
  <path d="M26 50l2.5-.5 1 2-1.5 2L26 53z" fill="#222"/>
  <!-- FIFA text -->
  <text x="32" y="10" font-family="monospace" font-size="5" font-weight="bold" fill="#FFD700" text-anchor="middle">FIFA WC</text>
</svg>
